<?xml version="1.0" encoding="UTF-8"?>
<svg width="45px" height="45px" viewBox="0 0 45 45" version="1.1" xmlns="http://www.w3.org/2000/svg" xmlns:xlink="http://www.w3.org/1999/xlink">
    <!-- Generator: Sketch 47.1 (45422) - http://www.bohemiancoding.com/sketch -->
    <title>Group</title>
    <desc>Created with Sketch.</desc>
    <defs>
        <filter x="-18.9%" y="-13.5%" width="137.8%" height="137.8%" filterUnits="objectBoundingBox" id="filter-1">
            <feOffset dx="0" dy="2" in="SourceAlpha" result="shadowOffsetOuter1"></feOffset>
            <feGaussianBlur stdDeviation="2" in="shadowOffsetOuter1" result="shadowBlurOuter1"></feGaussianBlur>
            <feColorMatrix values="0 0 0 0 0   0 0 0 0 0   0 0 0 0 0  0 0 0 0.5 0" type="matrix" in="shadowBlurOuter1" result="shadowMatrixOuter1"></feColorMatrix>
            <feMerge>
                <feMergeNode in="shadowMatrixOuter1"></feMergeNode>
                <feMergeNode in="SourceGraphic"></feMergeNode>
            </feMerge>
        </filter>
    </defs>
    <g id="Page-1" stroke="none" stroke-width="1" fill="none" fill-rule="evenodd">
        <g id="Desktop-HD" transform="translate(-52.000000, -324.000000)" fill="#FFFFFF">
            <g id="Group" filter="url(#filter-1)" transform="translate(74.500000, 344.500000) rotate(-270.000000) translate(-74.500000, -344.500000) translate(56.000000, 326.000000)">
                <path d="M36.5862172,18.2931086 C36.5862172,8.21323243 28.3729848,0 18.2931086,0 C8.21323243,0 0,8.21323243 0,18.2931086 C0,28.3729848 8.21323243,36.5862172 18.2931086,36.5862172 C28.3729848,36.3995528 36.5862172,28.1863204 36.5862172,18.2931086 Z M18.479773,33.5995872 C10.0798762,33.5995872 3.17329435,26.6930054 3.17329435,18.2931086 C3.17329435,9.89321179 10.0798762,2.98662997 18.479773,2.98662997 C26.8796698,2.98662997 33.7862516,9.89321179 33.7862516,18.2931086 C33.7862516,26.6930054 26.8796698,33.5995872 18.479773,33.5995872 Z" id="Shape"></path>
                <path d="M25.7797816,17.8399037 L19.6198572,23.999828 L19.6198572,11.493315 C19.6198572,10.7466575 19.0598641,10 18.1265423,10 C17.3798848,10 16.6332273,10.5599931 16.6332273,11.493315 L16.6332273,24.3731567 L10.4733029,18.2132324 C9.91330983,17.6532393 8.97998796,17.6532393 8.41999484,18.2132324 C7.86000172,18.7732255 7.86000172,19.7065474 8.41999484,20.2665405 L16.8198916,28.6664373 C17.006556,28.8531017 17.3798848,29.0397661 17.7532135,29.0397661 C18.1265423,29.0397661 18.499871,28.8531017 18.6865354,28.6664373 L27.4597609,19.8932118 C28.019754,19.3332187 28.019754,18.3998968 27.4597609,17.8399037 C27.2730966,17.2799106 26.3397747,17.2799106 25.7797816,17.8399037 Z" id="Shape"></path>
            </g>
        </g>
    </g>
</svg>